<?xml version="1.0" encoding="UTF-8"?>
<svg xmlns="http://www.w3.org/2000/svg" xmlns:xlink="http://www.w3.org/1999/xlink" width="512px" height="512px" viewBox="0 0 512 512" version="1.1">
<g id="surface1">
<path style=" stroke:none;fill-rule:nonzero;fill:rgb(34.509805%,39.607844%,94.901961%);fill-opacity:1;" d="M 433.714844 94.476562 C 394.714844 77.550781 353.390625 66.59375 311.128906 61.976562 C 306.253906 70.921875 301.816406 80.101562 297.839844 89.480469 C 270.082031 86.484375 242.078125 86.484375 214.320312 89.480469 C 210.292969 80.097656 205.800781 70.917969 200.871094 61.976562 C 158.609375 66.59375 117.285156 77.550781 78.285156 94.476562 C 14.738281 189.152344 -7.492188 282.054688 4.027344 374.195312 C 40.960938 406.472656 83.195312 432.125 128.867188 450.023438 C 139.035156 436.265625 148.007812 421.660156 155.6875 406.371094 C 140.878906 401.433594 126.519531 395.25 112.757812 387.886719 C 116.785156 384.867188 120.8125 381.726562 124.839844 378.503906 C 207.867188 418.34375 304.492188 418.34375 387.523438 378.503906 C 391.550781 381.726562 395.578125 384.867188 399.605469 387.886719 C 385.871094 395.25 371.535156 401.429688 356.757812 406.371094 C 364.488281 421.628906 373.460938 436.230469 383.578125 450.023438 C 429.25 432.136719 471.488281 406.480469 508.414062 374.195312 C 522.992188 262.765625 498.792969 170.707031 433.714844 94.476562 Z M 170.949219 326.515625 C 145.699219 326.515625 124.839844 303.601562 124.839844 275.410156 C 124.839844 247.222656 145.699219 224.507812 170.949219 224.507812 C 196.199219 224.507812 216.777344 247.222656 216.011719 275.410156 C 215.246094 303.601562 196.199219 326.515625 170.949219 326.515625 Z M 341.050781 326.515625 C 315.761719 326.515625 294.941406 303.601562 294.941406 275.410156 C 294.941406 247.222656 315.761719 224.507812 341.050781 224.507812 C 366.339844 224.507812 386.878906 247.222656 386.15625 275.410156 C 385.429688 303.601562 366.460938 326.515625 341.050781 326.515625 Z M 341.050781 326.515625 "/>
</g>
</svg>
