<?xml version="1.0" encoding="UTF-8"?>
<svg xmlns="http://www.w3.org/2000/svg" xmlns:xlink="http://www.w3.org/1999/xlink" width="512px" height="512px" viewBox="0 0 512 512" version="1.1">
<g id="surface1">
<path style=" stroke:none;fill-rule:nonzero;fill:rgb(0%,0%,0%);fill-opacity:1;" d="M 128.640625 80.640625 C 141.082031 82.171875 153.464844 84.050781 165.855469 85.945312 C 167.542969 86.203125 169.234375 86.460938 170.921875 86.71875 C 188.03125 89.324219 205.136719 91.972656 222.230469 94.675781 C 230.953125 96.054688 239.675781 97.429688 248.398438 98.800781 C 248.875 98.875 249.351562 98.949219 249.839844 99.027344 C 265.640625 101.511719 281.441406 103.960938 297.25 106.386719 C 298.972656 106.652344 300.695312 106.914062 302.417969 107.179688 C 302.84375 107.246094 303.273438 107.3125 303.714844 107.378906 C 313.890625 108.941406 324.070312 110.519531 334.246094 112.097656 C 346.042969 113.925781 357.839844 115.753906 369.640625 117.574219 C 370.097656 117.644531 370.550781 117.714844 371.023438 117.785156 C 375.910156 118.539062 380.796875 119.289062 385.683594 120.039062 C 393.113281 121.179688 400.539062 122.320312 407.960938 123.492188 C 409.695312 123.765625 411.429688 124.035156 413.164062 124.308594 C 414.695312 124.550781 416.226562 124.796875 417.753906 125.039062 C 418.65625 125.183594 419.558594 125.324219 420.460938 125.464844 C 421.214844 125.585938 421.96875 125.707031 422.746094 125.828125 C 424.476562 126.023438 425.960938 126.0625 427.679688 126 C 430.078125 126.078125 430.078125 126.078125 431.199219 126.871094 C 432.246094 128.347656 432.125 128.988281 431.847656 130.753906 C 431.769531 131.308594 431.6875 131.863281 431.605469 132.433594 C 431.503906 133.03125 431.40625 133.632812 431.304688 134.25 C 431.164062 135.191406 431.164062 135.191406 431.019531 136.152344 C 430.714844 138.128906 430.398438 140.105469 430.078125 142.078125 C 429.894531 143.265625 429.710938 144.449219 429.527344 145.636719 C 429.054688 148.65625 428.566406 151.671875 428.074219 154.691406 C 427.507812 158.167969 426.949219 161.648438 426.390625 165.128906 C 426.273438 165.859375 426.15625 166.589844 426.035156 167.339844 C 424.703125 175.65625 423.417969 183.980469 422.140625 192.300781 C 422.023438 193.074219 421.90625 193.847656 421.78125 194.644531 C 420.933594 200.175781 420.085938 205.707031 419.238281 211.238281 C 418.273438 217.539062 417.308594 223.84375 416.34375 230.140625 C 416.222656 230.921875 416.101562 231.699219 415.980469 232.503906 C 414.070312 244.929688 412.121094 257.351562 410.15625 269.765625 C 408.234375 281.894531 406.347656 294.027344 404.488281 306.164062 C 404.277344 307.539062 404.066406 308.914062 403.855469 310.292969 C 403.75 310.976562 403.644531 311.664062 403.535156 312.367188 C 402.28125 320.542969 401.011719 328.710938 399.742188 336.882812 C 399.503906 338.421875 399.265625 339.957031 399.027344 341.496094 C 398.542969 344.601562 398.058594 347.707031 397.578125 350.8125 C 393.4375 377.441406 389.308594 404.074219 385.28125 430.71875 C 383.097656 431.242188 381.402344 431.394531 379.195312 431.027344 C 378.621094 430.9375 378.050781 430.84375 377.464844 430.75 C 376.835938 430.644531 376.207031 430.539062 375.558594 430.425781 C 374.871094 430.316406 374.1875 430.207031 373.480469 430.089844 C 371.941406 429.839844 370.402344 429.589844 368.863281 429.332031 C 364.824219 428.667969 360.785156 428.015625 356.742188 427.367188 C 355.195312 427.117188 353.648438 426.867188 352.101562 426.617188 C 337.953125 424.335938 323.789062 422.15625 309.625 419.964844 C 305.679688 419.351562 301.738281 418.742188 297.792969 418.128906 C 291.183594 417.105469 284.570312 416.082031 277.960938 415.058594 C 270.796875 413.949219 263.632812 412.839844 256.46875 411.726562 C 256.007812 411.65625 255.546875 411.585938 255.070312 411.511719 C 247.140625 410.28125 239.210938 409.054688 231.28125 407.824219 C 226.800781 407.128906 222.320312 406.4375 217.839844 405.742188 C 185.695312 400.765625 185.695312 400.765625 170.363281 398.332031 C 161.039062 396.855469 151.707031 395.425781 142.375 394.007812 C 136.460938 393.109375 130.550781 392.203125 124.636719 391.300781 C 119.527344 390.519531 114.414062 389.738281 109.300781 388.960938 C 105.390625 388.367188 101.480469 387.769531 97.570312 387.167969 C 96.160156 386.949219 94.746094 386.734375 93.332031 386.523438 C 91.410156 386.230469 89.488281 385.9375 87.566406 385.636719 C 87.003906 385.554688 86.441406 385.472656 85.863281 385.386719 C 82.066406 384.785156 82.066406 384.785156 80.640625 383.359375 C 80.433594 381.503906 80.609375 380.246094 81.230469 378.480469 C 82.054688 375.902344 82.46875 373.367188 82.871094 370.695312 C 82.960938 370.121094 83.050781 369.550781 83.140625 368.960938 C 83.445312 367.015625 83.742188 365.066406 84.039062 363.121094 C 84.257812 361.703125 84.476562 360.289062 84.699219 358.875 C 85.195312 355.660156 85.691406 352.441406 86.1875 349.222656 C 87.136719 343.050781 88.089844 336.878906 89.046875 330.703125 C 89.402344 328.410156 89.757812 326.117188 90.113281 323.824219 C 90.203125 323.25 90.289062 322.675781 90.382812 322.082031 C 91.023438 317.941406 91.664062 313.800781 92.304688 309.660156 C 94.136719 297.8125 95.972656 285.964844 97.839844 274.121094 C 99.492188 263.632812 101.121094 253.140625 102.746094 242.648438 C 102.847656 241.984375 102.949219 241.320312 103.054688 240.632812 C 104.097656 233.886719 105.140625 227.140625 106.179688 220.398438 C 108.304688 206.625 110.445312 192.859375 112.609375 179.09375 C 115.054688 163.535156 117.460938 147.96875 119.855469 132.398438 C 120.417969 128.75 120.980469 125.097656 121.542969 121.449219 C 121.988281 118.5625 122.429688 115.675781 122.875 112.789062 C 123.082031 111.441406 123.289062 110.097656 123.496094 108.75 C 123.785156 106.871094 124.074219 104.996094 124.363281 103.117188 C 124.453125 102.527344 124.546875 101.933594 124.640625 101.324219 C 125.105469 98.273438 125.550781 95.222656 125.960938 92.164062 C 126.085938 91.238281 126.085938 91.238281 126.214844 90.289062 C 126.375 89.113281 126.53125 87.933594 126.679688 86.757812 C 126.75 86.234375 126.820312 85.710938 126.894531 85.167969 C 126.953125 84.710938 127.011719 84.25 127.074219 83.777344 C 127.359375 82.558594 127.359375 82.558594 128.640625 80.640625 Z M 232.320312 221.441406 C 230.414062 223.429688 230.023438 225.222656 229.625 227.90625 C 229.503906 228.699219 229.382812 229.488281 229.257812 230.304688 C 229.128906 231.167969 229.003906 232.035156 228.878906 232.898438 C 228.746094 233.796875 228.609375 234.695312 228.472656 235.59375 C 228.113281 237.96875 227.761719 240.339844 227.414062 242.714844 C 227.0625 245.082031 226.707031 247.445312 226.351562 249.8125 C 225.871094 253.003906 225.394531 256.195312 224.921875 259.390625 C 224.417969 262.824219 223.902344 266.253906 223.351562 269.683594 C 223.253906 270.277344 223.160156 270.871094 223.0625 271.484375 C 222.894531 272.542969 222.722656 273.601562 222.542969 274.660156 C 222.152344 277.144531 222.023438 279.167969 222.71875 281.601562 C 225.714844 282.699219 228.6875 283.3125 231.832031 283.800781 C 232.347656 283.882812 232.859375 283.964844 233.390625 284.046875 C 235.082031 284.320312 236.773438 284.582031 238.464844 284.847656 C 239.644531 285.035156 240.824219 285.21875 242.003906 285.40625 C 244.46875 285.796875 246.9375 286.179688 249.40625 286.566406 C 252.566406 287.058594 255.730469 287.5625 258.890625 288.066406 C 261.324219 288.449219 263.757812 288.832031 266.191406 289.210938 C 267.355469 289.394531 268.523438 289.578125 269.6875 289.765625 C 271.316406 290.023438 272.945312 290.277344 274.574219 290.527344 C 275.054688 290.605469 275.535156 290.683594 276.03125 290.765625 C 278.253906 291.101562 280.101562 291.363281 282.238281 290.558594 C 283.683594 286.148438 284.285156 281.613281 284.976562 277.039062 C 285.113281 276.144531 285.25 275.253906 285.390625 274.359375 C 285.675781 272.488281 285.960938 270.613281 286.246094 268.742188 C 286.601562 266.386719 286.964844 264.03125 287.324219 261.675781 C 287.609375 259.828125 287.890625 257.980469 288.171875 256.132812 C 288.367188 254.855469 288.5625 253.578125 288.757812 252.304688 C 289.863281 245.011719 290.855469 237.707031 291.839844 230.398438 C 284.269531 229.230469 276.699219 228.0625 269.125 226.894531 C 265.609375 226.351562 262.09375 225.8125 258.578125 225.269531 C 255.1875 224.746094 251.800781 224.222656 248.410156 223.699219 C 247.113281 223.5 245.816406 223.300781 244.519531 223.097656 C 242.710938 222.820312 240.902344 222.539062 239.089844 222.261719 C 238.550781 222.179688 238.011719 222.09375 237.457031 222.007812 C 234.898438 221.59375 234.898438 221.59375 232.320312 221.441406 Z M 232.320312 221.441406 "/>
</g>
</svg>
