<?xml version="1.0" encoding="UTF-8"?>
<svg version="1.1" xmlns="http://www.w3.org/2000/svg" width="512" height="512">
<path d="M0 0 C1.51537958 -0.0075046 3.03074677 -0.0181835 4.54608154 -0.03204346 C6.67031193 -0.04977044 8.7941313 -0.05406974 10.91842651 -0.05422974 C12.13505981 -0.05833862 13.35169312 -0.06244751 14.60519409 -0.06668091 C17.46139526 0.17623901 17.46139526 0.17623901 19.46139526 2.17623901 C19.83561449 4.91754332 20.11347122 7.6099048 20.33639526 10.36373901 C22.84758078 36.25144964 33.79269094 58.80126569 53.62936401 75.74264526 C55.78984771 77.43325831 58.10556169 78.77746283 60.46139526 80.17623901 C60.46139526 80.83623901 60.46139526 81.49623901 60.46139526 82.17623901 C61.14975464 82.43920776 61.83811401 82.70217651 62.54733276 82.97311401 C65.80534427 84.31824477 68.92397412 85.86957051 72.08639526 87.42623901 C77.84058817 90.15281472 83.6579007 92.45180625 89.71139526 94.42623901 C90.39927124 94.65988159 91.08714722 94.89352417 91.79586792 95.13424683 C100.59512091 97.88807617 109.14697623 98.70554127 118.46139526 100.17623901 C118.46139526 122.94623901 118.46139526 145.71623901 118.46139526 169.17623901 C114.92809412 170.0595643 113.0749082 170.22333012 109.57467651 169.90670776 C108.63559448 169.82227417 107.69651245 169.73784058 106.72897339 169.65084839 C105.75379761 169.55610229 104.77862183 169.4613562 103.77389526 169.36373901 C102.81805542 169.28059448 101.86221558 169.19744995 100.87741089 169.11178589 C94.93053474 168.55641981 89.24929886 167.63653019 83.46139526 166.17623901 C82.4796936 165.9333313 81.49799194 165.69042358 80.48654175 165.44015503 C77.15952452 164.60357478 73.84156349 163.73660855 70.52389526 162.86373901 C69.40821167 162.58078979 68.29252808 162.29784058 67.14303589 162.00631714 C60.05814693 160.13444548 53.8935954 157.65674709 47.46139526 154.17623901 C46.07825879 153.49315579 44.69169129 152.81696087 43.30123901 152.14889526 C42.32767456 151.6722644 42.32767456 151.6722644 41.33444214 151.18600464 C40.04245992 150.55370255 38.74816632 149.92610194 37.45162964 149.30319214 C33.68742189 147.44917937 30.19072427 145.38879438 26.70968628 143.04122925 C25.91071426 142.50384628 25.11174225 141.96646332 24.28855896 141.41279602 C23.68559494 141.00473221 23.08263092 140.5966684 22.46139526 140.17623901 C22.45900691 140.91448001 22.45661856 141.652721 22.45415783 142.41333294 C22.3947266 160.47146171 22.31900033 178.52945708 22.22568035 196.58744335 C22.18093236 205.32056144 22.14147087 214.05364065 22.11495972 222.78683472 C22.0918079 230.40881019 22.05822279 238.03066043 22.0126937 245.65253621 C21.98899012 249.67907798 21.97011321 253.7054975 21.96378136 257.73210716 C21.8879743 300.14689189 21.8879743 300.14689189 15.46139526 316.17623901 C15.09659058 317.28225464 14.73178589 318.38827026 14.35592651 319.52780151 C11.39038086 328.49938005 7.43111383 336.17665486 2.46139526 344.17623901 C1.80912964 345.23069214 1.15686401 346.28514526 0.48483276 347.37155151 C-3.93034513 354.24937843 -8.89190137 360.2778415 -14.53860474 366.17623901 C-15.34297974 367.04248901 -16.14735474 367.90873901 -16.97610474 368.80123901 C-24.21418575 375.50970434 -32.03890041 381.17950689 -40.53860474 386.17623901 C-41.15090942 386.53894897 -41.76321411 386.90165894 -42.39407349 387.27536011 C-52.44355464 393.15154248 -62.21420425 397.01680723 -73.53469849 399.69284058 C-75.32702259 400.12519946 -77.10600171 400.61203397 -78.88235474 401.10592651 C-89.57637857 404.06085415 -100.48905863 404.52450551 -111.53860474 404.17623901 C-112.45899536 404.14787964 -113.37938599 404.11952026 -114.32766724 404.09030151 C-123.01861483 403.59836108 -131.19508987 401.49679877 -139.53860474 399.17623901 C-141.26530396 398.71024292 -141.26530396 398.71024292 -143.02688599 398.23483276 C-150.68622858 396.04251794 -157.54497153 392.97307834 -164.53860474 389.17623901 C-165.18313599 388.83721558 -165.82766724 388.49819214 -166.49172974 388.14889526 C-176.90423823 382.48040349 -187.4544772 374.86667612 -195.53860474 366.17623901 C-196.21665161 365.45694214 -196.89469849 364.73764526 -197.59329224 363.99655151 C-202.79223966 358.37748712 -207.36549142 352.59177226 -211.53860474 346.17623901 C-212.06325317 345.37444214 -212.58790161 344.57264526 -213.12844849 343.74655151 C-216.45670278 338.44505739 -219.01664761 333.04550833 -221.31594849 327.22702026 C-222.11047311 325.24451632 -222.95474314 323.28098577 -223.85501099 321.34420776 C-230.41017864 307.04024491 -231.09682671 291.7940212 -230.97610474 276.30123901 C-230.97306335 275.46995483 -230.97002197 274.63867065 -230.96688843 273.78219604 C-230.86950386 255.77340842 -228.53096361 240.43802521 -220.53860474 224.17623901 C-220.04876099 223.17592651 -219.55891724 222.17561401 -219.05422974 221.14498901 C-213.28445522 209.84336883 -206.65649103 199.0703735 -197.53860474 190.17623901 C-196.78321411 189.3860437 -196.02782349 188.59584839 -195.24954224 187.78170776 C-179.59361655 171.57599205 -160.14796929 160.90563536 -138.60940552 154.77584839 C-136.64760429 154.20780031 -134.69987582 153.59179267 -132.75344849 152.97311401 C-118.63043143 148.79653919 -98.35515349 146.58732825 -84.53860474 152.17623901 C-82.53860474 154.17623901 -82.53860474 154.17623901 -82.32571411 157.77096558 C-82.33384575 159.36968919 -82.35373621 160.96837588 -82.38235474 162.56686401 C-82.39045166 163.44401062 -82.39854858 164.32115723 -82.40689087 165.22488403 C-82.43874675 168.20895453 -82.48746849 171.19243909 -82.53860474 174.17623901 C-82.55504028 175.25043091 -82.57147583 176.3246228 -82.58840942 177.43136597 C-82.71433361 185.59683657 -82.87346984 193.76148225 -83.03860474 201.92623901 C-83.08696024 204.3884751 -83.13513841 206.85071467 -83.18313599 209.31295776 C-83.2995873 215.2674265 -83.41820453 221.22184888 -83.53860474 227.17623901 C-86.96217677 228.14002149 -89.05217911 228.03252342 -92.53860474 227.23873901 C-108.62359949 224.12413791 -122.78769614 227.36763311 -136.53860474 236.17623901 C-147.24849411 243.95407671 -156.39052488 256.96993803 -158.53860474 270.17623901 C-158.77468113 273.75744633 -158.76946727 277.33796385 -158.78860474 280.92623901 C-158.80922974 281.87756714 -158.82985474 282.82889526 -158.85110474 283.80905151 C-158.90130965 292.97144888 -156.49645825 299.88791348 -152.16360474 307.92623901 C-151.59899536 308.99358276 -151.03438599 310.06092651 -150.45266724 311.16061401 C-148.46320698 314.29502895 -146.17576888 316.58438697 -143.53860474 319.17623901 C-143.53860474 319.83623901 -143.53860474 320.49623901 -143.53860474 321.17623901 C-142.33204224 321.57842651 -142.33204224 321.57842651 -141.10110474 321.98873901 C-140.25547974 322.38061401 -139.40985474 322.77248901 -138.53860474 323.17623901 C-138.04360474 324.66123901 -138.04360474 324.66123901 -137.53860474 326.17623901 C-135.2784152 327.24484786 -135.2784152 327.24484786 -132.53860474 328.17623901 C-129.46792798 329.6974547 -126.42401688 331.265604 -123.37844849 332.83639526 C-112.70288777 337.87314537 -96.52154423 336.77940299 -85.60110474 332.98873901 C-70.3365648 326.43633458 -59.68015988 315.92518215 -52.26516724 301.06295776 C-49.65381196 294.28185776 -50.17878275 286.73331097 -49.99368286 279.58126831 C-49.97288445 278.81374784 -49.95208605 278.04622737 -49.93065739 277.2554487 C-49.2942012 253.15420499 -49.33141637 229.04147433 -49.27328435 204.93353989 C-49.25601516 197.88975164 -49.23267601 190.84598676 -49.20887011 183.80221804 C-49.1665053 171.24827078 -49.12727612 158.69431619 -49.09085083 146.14035034 C-49.08868803 145.39537333 -49.08652522 144.65039631 -49.08429688 143.88284423 C-49.06230024 136.29306331 -49.040621 128.70328149 -49.01906547 121.1134993 C-49.00820483 117.29204588 -48.9972972 113.4705926 -48.98635864 109.6491394 C-48.98419977 108.89449199 -48.9820409 108.13984457 -48.97981662 107.36232904 C-48.94376544 94.80108452 -48.90385241 82.23985528 -48.86105585 69.67863196 C-48.83493056 61.95742635 -48.81226457 54.23622537 -48.79407227 46.51499691 C-48.77996238 40.63316819 -48.76084195 34.75136284 -48.73982048 28.86955452 C-48.73203422 26.45272566 -48.72597799 24.03589055 -48.72172737 21.61905289 C-48.71572553 18.33699974 -48.70370127 15.05502406 -48.69009399 11.772995 C-48.68979801 10.80438138 -48.68950202 9.83576777 -48.68919706 8.83780223 C-48.68191045 7.5304935 -48.68191045 7.5304935 -48.67447662 6.19677448 C-48.67236065 5.43900158 -48.67024468 4.68122868 -48.66806459 3.90049297 C-48.53860474 2.17623901 -48.53860474 2.17623901 -47.53860474 1.17623901 C-45.64793462 1.0158058 -43.75137772 0.92437363 -41.85501099 0.85983276 C-40.02135986 0.79662842 -40.02135986 0.79662842 -38.15066528 0.73214722 C-36.80083178 0.69199925 -35.45097741 0.65254773 -34.10110474 0.61373901 C-33.42375275 0.59322479 -32.74640076 0.57271057 -32.04852295 0.55157471 C-21.36772671 0.23341934 -10.68543259 0.04867012 0 0 Z " fill="#000000" transform="translate(312.5386047363281,53.823760986328125)"/>
</svg>
