<?xml version="1.0" encoding="UTF-8"?>
<svg version="1.1" xmlns="http://www.w3.org/2000/svg" width="512" height="512">
<path d="M0 0 C13.05596649 -0.44182173 26.11013417 -0.77859441 39.17207527 -0.98443127 C45.23899912 -1.08327339 51.30078209 -1.21708709 57.36474609 -1.43334961 C63.22672043 -1.64108018 69.08378141 -1.75364049 74.9491539 -1.80266762 C77.17682159 -1.8375587 79.40424372 -1.90571152 81.62979507 -2.00887108 C98.58823517 -2.76307339 98.58823517 -2.76307339 104.30765343 1.86889076 C108.51325122 6.40208256 111.72636598 11.43771778 114.74738503 16.81310654 C116.2867162 19.50056705 118.07189044 21.93694608 119.97265625 24.37890625 C126.06445975 32.62475937 132.11044392 40.90086261 138.09912109 49.22192383 C142.67004306 55.56472004 147.30894971 61.85591147 151.95629883 68.14282227 C156.3705008 74.12325356 160.71211516 80.15166122 165.01171875 86.21484375 C166.22914641 87.92019919 167.47562801 89.605822 168.76953125 91.25390625 C170 93 170 93 170 95 C170.66 95 171.32 95 172 95 C172.27384521 94.40775635 172.54769043 93.8155127 172.82983398 93.20532227 C173.95817714 91.07882035 175.13079694 89.50894637 176.72265625 87.71484375 C177.25640869 87.10761475 177.79016113 86.50038574 178.34008789 85.87475586 C179.19268188 84.91581421 179.19268188 84.91581421 180.0625 83.9375 C181.25119122 82.58437887 182.43868682 81.2302065 183.625 79.875 C184.20507812 79.21242188 184.78515625 78.54984375 185.3828125 77.8671875 C187.49313899 75.43062696 189.53442314 72.94277142 191.5625 70.4375 C195.47306878 65.6084857 199.50458723 60.89505347 203.56103516 56.18896484 C206.5725803 52.68745747 209.53066209 49.15204479 212.4375 45.5625 C216.53850593 40.51225581 220.78480135 35.60049258 225.05566406 30.69433594 C229.43635275 25.65973686 233.76662735 20.58548023 238.07421875 15.48828125 C238.52925781 14.98538574 238.98429688 14.48249023 239.453125 13.96435547 C241.1573975 11.91275103 241.1573975 11.91275103 242.65625 8.96142578 C245.58285525 4.29249834 248.00449745 0.72930422 253.57247925 -0.62631226 C261.2434776 -1.51774056 268.92999876 -1.09057208 276.625 -0.75 C278.98814591 -0.68974707 281.35143913 -0.63500472 283.71484375 -0.5859375 C289.47979845 -0.45429985 295.23921119 -0.25407196 301 0 C300.12768971 4.44465708 297.63295378 7.07357797 294.6875 10.375 C293.59100068 11.62877932 292.49465074 12.88268929 291.3984375 14.13671875 C290.83479492 14.77657715 290.27115234 15.41643555 289.69042969 16.07568359 C287.04041298 19.09235483 284.4253366 22.13862782 281.8125 25.1875 C281.30992676 25.77265381 280.80735352 26.35780762 280.28955078 26.96069336 C277.33099132 30.41428166 274.42644646 33.90460254 271.5625 37.4375 C267.42003621 42.54227843 263.11880901 47.49622682 258.79931641 52.45068359 C254.87498342 56.96234733 251.06565963 61.55334506 247.30078125 66.19921875 C243.62227613 70.67712736 239.82960344 75.05599295 236.05078125 79.44921875 C229.73750339 86.78963301 223.47099793 94.16522872 217.375 101.6875 C213.79381101 106.09217095 210.04255036 110.30203103 206.21875 114.49609375 C202.64458107 118.5296189 199.31595815 122.7534051 196 127 C197.65765906 130.65919421 199.90424474 133.82319013 202.25 137.0625 C202.68401123 137.66610352 203.11802246 138.26970703 203.56518555 138.89160156 C207.86854078 144.85759971 212.24200447 150.77216831 216.61425781 156.68774414 C220.61148278 162.10015914 224.56973725 167.53880119 228.5 173 C232.96015427 179.19658129 237.46249169 185.35983975 242 191.5 C247.08205078 198.3770356 252.11002797 205.29033083 257.10546875 212.23046875 C261.03392016 217.68083838 265.00705268 223.09674016 269 228.5 C274.08205078 235.3770356 279.11002797 242.29033083 284.10546875 249.23046875 C288.60689055 255.47578278 293.17096686 261.67341453 297.74755859 267.86376953 C302.46190127 274.24851742 307.11622744 280.67510319 311.73828125 287.12695312 C312.23972656 287.82498047 312.74117188 288.52300781 313.2578125 289.2421875 C313.72477539 289.89413086 314.19173828 290.54607422 314.67285156 291.21777344 C315.8556423 292.80614216 317.13711161 294.31992698 318.4296875 295.8203125 C318.94789063 296.53960937 319.46609375 297.25890625 320 298 C319.67 298.99 319.34 299.98 319 301 C306.34353474 301.18548046 293.68739354 301.32756857 281.02984524 301.41449738 C275.15213911 301.4562226 269.27536377 301.51280373 263.39819336 301.60351562 C257.72469522 301.69053442 252.05209142 301.73829419 246.37797737 301.75901794 C244.21494531 301.77378318 242.05196141 301.80261769 239.88931084 301.84584045 C236.85539471 301.90405662 233.82515761 301.9119077 230.79077148 301.90820312 C229.45396332 301.95134644 229.45396332 301.95134644 228.09014893 301.99536133 C224.23698193 301.94456536 221.91853554 301.77129268 218.90471172 299.2405901 C217.12919402 297.23161489 215.54044602 295.19242785 214 293 C213.38697021 292.22422607 212.77394043 291.44845215 212.14233398 290.64916992 C211.68157471 290.01599854 211.22081543 289.38282715 210.74609375 288.73046875 C210.20919922 287.99699219 209.67230469 287.26351563 209.11914062 286.5078125 C208.56419922 285.74210937 208.00925781 284.97640625 207.4375 284.1875 C206.20712919 282.50383468 204.97665759 280.820243 203.74609375 279.13671875 C203.12460449 278.28384277 202.50311523 277.4309668 201.86279297 276.55224609 C198.92289171 272.52423459 195.96082722 268.51263973 193 264.5 C191.83321662 262.91675267 190.6665502 261.33341915 189.5 259.75 C188.9225 258.96625 188.345 258.1825 187.75 257.375 C182.5 250.25 182.5 250.25 180.74951172 247.87426758 C179.58456151 246.29331017 178.41952266 244.71241808 177.25439453 243.1315918 C174.3107302 239.13744172 171.36868654 235.1421157 168.4296875 231.14453125 C162.23813683 222.72646236 156.02434858 214.32720047 149.72998047 205.9855957 C147.75198326 203.36032284 145.82389769 200.73584653 144 198 C137.52449143 204.89186952 131.19998043 211.82232162 125.26953125 219.1953125 C122.7634333 222.29234921 120.20316894 225.33797756 117.625 228.375 C116.93482788 229.18880127 116.93482788 229.18880127 116.23071289 230.01904297 C114.34965678 232.23570962 112.46677146 234.45081923 110.58398438 236.66601562 C109.18019194 238.31833563 107.77728202 239.97139798 106.375 241.625 C105.68905762 242.43360474 105.68905762 242.43360474 104.98925781 243.25854492 C102.07606986 246.70192474 99.21433224 250.18269926 96.375 253.6875 C92.79777821 258.08582786 89.05402459 262.29298854 85.23828125 266.484375 C82.19916432 269.90006663 79.33744583 273.44725989 76.4609375 277 C72.24177119 282.14336465 67.93310508 287.22529562 63.51092529 292.19578552 C61.97933005 293.95040543 61.97933005 293.95040543 60.80995178 295.83528137 C58.72666978 298.838857 57.16106026 300.71157236 53.53407288 301.61257935 C50.49162785 301.81008762 47.52369648 301.7871862 44.4765625 301.68359375 C43.37524994 301.67368912 42.27393738 301.66378448 41.13925171 301.65357971 C37.63312761 301.61449767 34.13017239 301.52667974 30.625 301.4375 C28.2435349 301.40237849 25.86202057 301.37044097 23.48046875 301.34179688 C17.65257071 301.26475623 11.82651174 301.14772773 6 301 C6.69608249 297.92676927 7.40900679 296.18313039 9.51953125 293.8203125 C10.04111816 293.22847168 10.56270508 292.63663086 11.10009766 292.02685547 C11.66519043 291.39924316 12.2302832 290.77163086 12.8125 290.125 C14.00432746 288.7764138 15.1957242 287.42744684 16.38671875 286.078125 C17.29429932 285.0562207 17.29429932 285.0562207 18.22021484 284.01367188 C20.8879348 280.99537912 23.50848681 277.93767664 26.125 274.875 C26.86097412 274.01515503 26.86097412 274.01515503 27.61181641 273.13793945 C37.59661045 261.46777891 37.59661045 261.46777891 47.375 249.625 C51.54156423 244.50266476 55.86201281 239.52582622 60.20043945 234.54956055 C64.12489097 230.03784637 67.93426783 225.44674445 71.69921875 220.80078125 C75.38006413 216.3200238 79.17513193 211.93840814 82.95703125 207.54296875 C85.84230575 204.18857372 88.70679062 200.81708011 91.5625 197.4375 C92.23708252 196.63916748 92.23708252 196.63916748 92.92529297 195.82470703 C93.83068442 194.7528666 94.73595817 193.68092674 95.64111328 192.60888672 C97.92546186 189.90427711 100.21289444 187.20227819 102.5 184.5 C103.40235837 183.43360612 104.30470207 182.36719982 105.20703125 181.30078125 C109.8046875 175.8671875 114.40234375 170.43359375 119 165 C114.94237967 158.59323107 110.45338614 152.54943519 105.88232422 146.5065918 C101.97257418 141.32686028 98.15689043 136.0861392 94.375 130.8125 C90.6630064 125.64150112 86.90674811 120.52567112 83 115.5 C79.15736904 110.55593859 75.46201141 105.52554497 71.8125 100.4375 C67.13729529 93.92132513 62.38636943 87.46941566 57.5625 81.0625 C50.30636229 71.42488933 43.14244014 61.72204376 36 52 C33.62609399 48.77002736 31.25113796 45.54083107 28.875 42.3125 C28.00524536 41.13059082 28.00524536 41.13059082 27.11791992 39.92480469 C23.85433228 35.49620763 20.56953914 31.08472833 17.25927734 26.69091797 C12.88501209 20.88450893 8.52898689 15.06457944 4.25 9.1875 C3.81913086 8.60637451 3.38826172 8.02524902 2.94433594 7.42651367 C0 3.34603485 0 3.34603485 0 0 Z M60 31 C62.50841726 35.56282235 65.13328835 39.65637095 68.375 43.75 C72.5947929 49.14053787 76.69783593 54.60739885 80.75 60.125 C81.34216309 60.93098633 81.93432617 61.73697266 82.54443359 62.56738281 C83.75850124 64.220762 84.97220328 65.87440971 86.18554688 67.52832031 C89.11805746 71.52303737 92.05936661 75.51126088 95 79.5 C96.16671111 81.08330059 97.33337772 82.66663396 98.5 84.25 C99.0775 85.03375 99.655 85.8175 100.25 86.625 C147.5 150.75 147.5 150.75 149.2512207 153.12670898 C150.41375169 154.70439483 151.57634897 156.28203183 152.73901367 157.85961914 C155.71951156 161.90395379 158.69872758 165.94922297 161.67578125 169.99609375 C169.05232382 180.02445064 169.05232382 180.02445064 176.5 190 C183.34352444 199.09518313 190.06222629 208.28355868 196.80419922 217.45410156 C198.57722898 219.86565476 200.35086456 222.27676012 202.125 224.6875 C202.70652832 225.47769531 203.28805664 226.26789063 203.88720703 227.08203125 C208.0583206 232.7417424 212.27548409 238.36531315 216.50756836 243.97949219 C221.05631775 250.03430323 225.48743252 256.17233536 229.90063477 262.32641602 C230.42197998 263.05272217 230.9433252 263.77902832 231.48046875 264.52734375 C231.94348389 265.17437256 232.40649902 265.82140137 232.88354492 266.48803711 C233.91851081 267.96811033 233.91851081 267.96811033 235 269 C236.85369611 269.08737645 238.71067541 269.10698153 240.56640625 269.09765625 C241.69111328 269.09443359 242.81582031 269.09121094 243.97460938 269.08789062 C245.15861328 269.07951172 246.34261719 269.07113281 247.5625 269.0625 C248.75037109 269.05798828 249.93824219 269.05347656 251.16210938 269.04882812 C254.10812226 269.03699675 257.05403681 269.02051287 260 269 C256.58753814 263.78312256 253.10630126 258.71052023 249.25 253.8125 C245.81218974 249.40302186 242.4791968 244.93941526 239.25 240.375 C235.29391649 234.78441898 231.25973551 229.25654506 227.1875 223.75 C222.04477684 216.79326269 216.95519139 209.8011642 211.90185547 202.77929688 C207.32402597 196.42729794 202.67859407 190.1266211 198.02392578 183.83081055 C194.59681693 179.18835711 191.21103009 174.52075453 187.875 169.8125 C184.33133866 164.81191112 180.69129709 159.89254463 177 155 C173.30869926 150.10745053 169.66880414 145.18799109 166.125 140.1875 C159.87280213 131.36825008 153.42690435 122.6922803 147 114 C139.57889126 103.96027391 132.18803375 93.90201678 124.89428711 83.76928711 C120.39091603 77.52100458 115.82470905 71.32053202 111.24584961 65.12744141 C106.62052303 58.86353464 102.05340152 52.55922182 97.52539062 46.22460938 C96.536662 44.84712769 95.53433222 43.47930178 94.51831055 42.12182617 C93 40 93 40 91.53833008 37.49731445 C89.11998945 33.68658454 87.52383811 31.36165194 83.00854492 30.29003906 C79.48375484 30.11383775 76.08404724 30.21272039 72.5625 30.4375 C71.35400391 30.47810547 70.14550781 30.51871094 68.90039062 30.56054688 C65.92942892 30.66623326 62.96682253 30.81379775 60 31 Z " fill="#010101" transform="translate(96,105)"/>
</svg>
