<?xml version="1.0" encoding="UTF-8"?>
<svg version="1.1" xmlns="http://www.w3.org/2000/svg" width="512" height="512">
<path d="M0 0 C5.68211841 0.00754142 11.36416709 0.00482203 17.04628295 -0.00360405 C155.07684087 -0.20304147 155.07684087 -0.20304147 176.01674193 19.24932563 C197.33546325 41.50558154 196.20682997 78.41182781 196.13783568 107.35088813 C196.13918928 109.40048983 196.14113553 111.45009122 196.14363402 113.49969184 C196.14655268 117.75855324 196.14239427 122.01732972 196.13295287 126.2761811 C196.12156044 131.67120587 196.12813765 137.06603146 196.1400978 142.46104896 C196.14740549 146.68242538 196.14498814 150.90375639 196.13984221 155.12513435 C196.13853019 157.11177808 196.14006493 159.09842625 196.14480132 161.08506477 C196.17709899 178.4279403 195.26344843 195.73970086 192.05971068 212.81963813 C191.8886682 213.73455024 191.71762572 214.64946235 191.54140013 215.59209907 C188.5247231 230.82029556 181.68526954 244.02856714 168.87221068 253.25713813 C128.45688343 276.96886859 60.20228273 266.58167225 14.68787926 266.51427639 C8.99946177 266.50673174 3.31111391 266.50945673 -2.37730104 266.51788032 C-72.55592152 266.61914034 -72.55592152 266.61914034 -104.12778932 264.25713813 C-104.85965518 264.20257642 -105.59152105 264.14801471 -106.34556466 264.09179962 C-148.10331239 260.96624174 -148.10331239 260.96624174 -163.87778932 244.63213813 C-182.31849933 221.81341783 -181.27674398 187.16947889 -181.33091432 159.40948188 C-181.3337417 158.41929117 -181.33656907 157.42910045 -181.33948213 156.40890396 C-181.35439849 151.15705948 -181.36367269 145.90524189 -181.36802369 140.65337837 C-181.37238785 136.3743193 -181.3862101 132.09546418 -181.40903932 127.8164643 C-181.86628694 40.38646563 -181.86628694 40.38646563 -160.56919557 18.44073188 C-125.70921629 -12.73803358 -44.29313322 -0.06563306 0 0 Z " fill="#E42D28" transform="translate(249.12778931856155,122.74286186695099)"/>
<path d="M0 0 C7.92 3.96 7.92 3.96 16 8 C20.13023405 10.0523983 20.13023405 10.0523983 24.26049805 12.10473633 C32.7145796 16.31277099 41.1200675 20.59692344 49.46411133 25.01904297 C56.45387069 28.72252362 63.47455864 32.36472272 70.5 36 C78.95508838 40.37713737 87.39827151 44.77476517 95.81762695 49.22021484 C106.51819049 54.86485246 117.26221264 60.42660835 128 66 C128 66.99 128 67.98 128 69 C127.31188232 69.34144043 126.62376465 69.68288086 125.91479492 70.03466797 C114.13538585 75.88565991 102.36591868 81.74171154 90.74975586 87.91210938 C82.78509476 92.13502256 74.76721725 96.25307441 66.75 100.375 C57.15437578 105.30997702 47.56349251 110.25292075 38 115.25 C37.11062744 115.71422363 36.22125488 116.17844727 35.30493164 116.65673828 C30.23429074 119.3049696 25.16873829 121.96270247 20.10546875 124.625 C17.79951522 125.83340214 15.49352638 127.04173689 13.1875 128.25 C12.10017578 128.82395508 11.01285156 129.39791016 9.89257812 129.98925781 C8.89033203 130.51358398 7.88808594 131.03791016 6.85546875 131.578125 C5.96496826 132.04637695 5.07446777 132.51462891 4.15698242 132.99707031 C2 134 2 134 0 134 C0 89.78 0 45.56 0 0 Z " fill="#FEFDFC" transform="translate(205,185)"/>
<path d="M0 0 C0.66 0.33 1.32 0.66 2 1 C0.47793991 3.62901288 -0.84365964 5.84365964 -3 8 C-3.99 8 -4.98 8 -6 8 C-4.55746343 4.63408134 -2.66735273 2.48952921 0 0 Z " fill="#F38683" transform="translate(91,139)"/>
</svg>
