<?xml version="1.0" encoding="UTF-8"?>
<svg xmlns="http://www.w3.org/2000/svg" xmlns:xlink="http://www.w3.org/1999/xlink" width="512px" height="512px" viewBox="0 0 512 512" version="1.1">
<g id="surface1">
<path style=" stroke:none;fill-rule:evenodd;fill:rgb(95.686275%,26.274511%,21.176471%);fill-opacity:1;" d="M 490.238281 129.921875 C 476.351562 105.214844 461.28125 100.671875 430.59375 98.945312 C 399.9375 96.863281 322.847656 96 256.0625 96 C 189.152344 96 112.03125 96.863281 81.40625 98.910156 C 50.785156 100.671875 35.679688 105.183594 21.664062 129.921875 C 7.359375 154.59375 0 197.089844 0 271.902344 L 0 272.160156 C 0 346.65625 7.359375 389.472656 21.664062 413.886719 C 35.679688 438.59375 50.753906 443.070312 81.375 445.152344 C 112.03125 446.945312 189.152344 448 256.0625 448 C 322.847656 448 399.9375 446.945312 430.625 445.183594 C 461.3125 443.105469 476.382812 438.625 490.273438 413.921875 C 504.703125 389.503906 512 346.6875 512 272.191406 L 512 271.9375 C 512 197.089844 504.703125 154.59375 490.238281 129.921875 Z M 490.238281 129.921875 "/>
<path style=" stroke:none;fill-rule:evenodd;fill:rgb(98.039216%,98.039216%,98.039216%);fill-opacity:1;" d="M 192 368 L 192 176 L 352 272 Z M 192 368 "/>
</g>
</svg>
